<?xml version="1.0" encoding="UTF-8" standalone="no"?>
<svg
   xmlns:dc="http://purl.org/dc/elements/1.1/"
   xmlns:cc="http://creativecommons.org/ns#"
   xmlns:rdf="http://www.w3.org/1999/02/22-rdf-syntax-ns#"
   xmlns:svg="http://www.w3.org/2000/svg"
   xmlns="http://www.w3.org/2000/svg"
   viewBox="0 0 58.453335 37.200001"
   height="37.200001"
   width="58.453335"
   xml:space="preserve"
   id="svg2"
   version="1.1"><metadata
     id="metadata8"><rdf:RDF><cc:Work
         rdf:about=""><dc:format>image/svg+xml</dc:format><dc:type
           rdf:resource="http://purl.org/dc/dcmitype/StillImage" /></cc:Work></rdf:RDF></metadata><defs
     id="defs6"><clipPath
       id="clipPath20"
       clipPathUnits="userSpaceOnUse"><path
         id="path18"
         d="M 0,0 H 438 V 279 H 0 Z" /></clipPath><clipPath
       id="clipPath26"
       clipPathUnits="userSpaceOnUse"><path
         id="path24"
         d="M -1.5625,1.07422 H 566.309 V 389.617 H -1.5625 Z" /></clipPath></defs><g
     transform="matrix(1.3333333,0,0,-1.3333333,0,37.2)"
     id="g10"><g
       transform="scale(0.1)"
       id="g12"><g
         id="g14"><g
           clip-path="url(#clipPath20)"
           id="g16"><g
             clip-path="url(#clipPath26)"
             id="g22"><path
               id="path28"
               style="fill:#c0c0c0;fill-opacity:1;fill-rule:nonzero;stroke:none"
               d="m 0,1.07422 h 566.309 v 388.543 H 0 Z" /></g></g></g><path
         id="path30"
         style="fill:none;stroke:#000000;stroke-width:4.9813199;stroke-linecap:butt;stroke-linejoin:miter;stroke-miterlimit:10;stroke-dasharray:none;stroke-opacity:1"
         d="M 38.2891,50.8867 V 220.418" /><path
         id="path32"
         style="fill:#000000;fill-opacity:1;fill-rule:nonzero;stroke:none"
         d="M 38.2891,256.555 51.4336,221.5 h -26.293 z" /><path
         id="path34"
         style="fill:none;stroke:#000000;stroke-width:2.49065995;stroke-linecap:butt;stroke-linejoin:miter;stroke-miterlimit:10;stroke-dasharray:none;stroke-opacity:1"
         d="M 38.2891,256.555 51.4336,221.5 h -26.293 z" /><path
         id="path36"
         style="fill:#000000;fill-opacity:1;fill-rule:nonzero;stroke:none"
         d="m 38.2891,220.254 h 2.4882 -4.9804" /><path
         id="path38"
         style="fill:none;stroke:#000000;stroke-width:4.9813199;stroke-linecap:butt;stroke-linejoin:miter;stroke-miterlimit:10;stroke-dasharray:none;stroke-opacity:1"
         d="M 38.2891,130.59 H 377.184" /><path
         id="path40"
         style="fill:#000000;fill-opacity:1;fill-rule:nonzero;stroke:none"
         d="m 413.32,130.59 -35.058,-13.149 v 26.293 z" /><path
         id="path42"
         style="fill:none;stroke:#000000;stroke-width:2.49065995;stroke-linecap:butt;stroke-linejoin:miter;stroke-miterlimit:10;stroke-dasharray:none;stroke-opacity:1"
         d="m 413.32,130.59 -35.058,-13.149 v 26.293 z" /><path
         id="path44"
         style="fill:#000000;fill-opacity:1;fill-rule:nonzero;stroke:none"
         d="m 377.02,130.59 v -2.492 4.98" /><path
         id="path46"
         style="fill:none;stroke:#ff0000;stroke-width:9.96263981;stroke-linecap:butt;stroke-linejoin:miter;stroke-miterlimit:10;stroke-dasharray:none;stroke-opacity:1"
         d="m 38.2891,190.363 h 61.25 c 10.4099,0 19.0659,-8.015 19.8629,-18.394 l 7.133,-92.7229 c 0.797,-10.3789 9.457,-18.3945 19.867,-18.3945 h 3.203 c 10.305,0 18.915,7.8593 19.844,18.1211 l 6.668,73.3433 c 0.934,10.262 9.539,18.125 19.844,18.125 h 25.246 c 9.496,0 17.676,-6.707 19.535,-16.019 l 10.301,-51.508 c 2.926,-14.6406 20.328,-20.9765 31.988,-11.6484 l 74.063,59.2504" /></g></g></svg>