<?xml version="1.0" encoding="UTF-8" standalone="no"?>
<svg
   xmlns:dc="http://purl.org/dc/elements/1.1/"
   xmlns:cc="http://creativecommons.org/ns#"
   xmlns:rdf="http://www.w3.org/1999/02/22-rdf-syntax-ns#"
   xmlns:svg="http://www.w3.org/2000/svg"
   xmlns="http://www.w3.org/2000/svg"
   viewBox="0 0 58.453335 37.200001"
   height="37.200001"
   width="58.453335"
   xml:space="preserve"
   id="svg2"
   version="1.1"><metadata
     id="metadata8"><rdf:RDF><cc:Work
         rdf:about=""><dc:format>image/svg+xml</dc:format><dc:type
           rdf:resource="http://purl.org/dc/dcmitype/StillImage" /></cc:Work></rdf:RDF></metadata><defs
     id="defs6"><clipPath
       id="clipPath20"
       clipPathUnits="userSpaceOnUse"><path
         id="path18"
         d="M 0,0 H 438 V 279 H 0 Z" /></clipPath><clipPath
       id="clipPath26"
       clipPathUnits="userSpaceOnUse"><path
         id="path24"
         d="M -1.5625,1.07422 H 566.309 V 399.582 H -1.5625 Z" /></clipPath><clipPath
       id="clipPath38"
       clipPathUnits="userSpaceOnUse"><path
         id="path36"
         d="m 167.801,140.551 v 0 1.504 l -0.61,4.515 -1.742,5.614 -2.754,5.074 -3.652,4.426 -4.422,3.648 -5.078,2.758 -5.609,1.742 -4.516,0.609 h -1.504 -1.508 l -4.515,-0.609 -5.61,-1.742 -5.078,-2.758 -4.422,-3.648 -3.652,-4.426 -2.754,-5.074 -1.742,-5.614 -0.606,-4.515 v -1.504 -1.508 l 0.606,-4.516 1.742,-5.609 2.754,-5.078 3.652,-4.422 4.422,-3.652 5.078,-2.754 5.61,-1.742 4.515,-0.606 h 1.508 1.504 l 4.516,0.606 5.609,1.742 5.078,2.754 4.422,3.652 3.652,4.422 2.754,5.078 1.742,5.609 0.61,4.516 z" /></clipPath><clipPath
       id="clipPath50"
       clipPathUnits="userSpaceOnUse"><path
         id="path48"
         d="m 347.129,124.613 v 0 1.504 l -0.609,4.516 -1.743,5.609 -2.754,5.078 -3.652,4.422 -4.422,3.653 -5.078,2.753 -5.609,1.743 -4.516,0.609 h -1.504 -1.508 l -4.515,-0.609 -5.61,-1.743 -5.078,-2.753 -4.422,-3.653 -3.652,-4.422 -2.754,-5.078 -1.742,-5.609 -0.606,-4.516 v -1.504 -1.508 l 0.606,-4.515 1.742,-5.613 2.754,-5.075 3.652,-4.425 4.422,-3.6489 5.078,-2.7578 5.61,-1.7422 4.515,-0.6054 h 1.508 1.504 l 4.516,0.6054 5.609,1.7422 5.078,2.7578 4.422,3.6489 3.652,4.425 2.754,5.075 1.743,5.613 0.609,4.515 z" /></clipPath></defs><g
     transform="matrix(1.3333333,0,0,-1.3333333,0,37.2)"
     id="g10"><g
       transform="scale(0.1)"
       id="g12"><g
         id="g14"><g
           clip-path="url(#clipPath20)"
           id="g16"><g
             clip-path="url(#clipPath26)"
             id="g22"><path
               id="path28"
               style="fill:#c0c0c0;fill-opacity:1;fill-rule:nonzero;stroke:none"
               d="m 0,1.07422 h 566.309 v 398.508 H 0 Z" /></g></g></g><path
         id="path30"
         style="fill:none;stroke:#0000ff;stroke-width:9.96263981;stroke-linecap:butt;stroke-linejoin:miter;stroke-miterlimit:10;stroke-dasharray:none;stroke-opacity:1"
         d="m 38.2891,80.7773 96.8159,58.0897 c 1.825,1.09 3.954,1.574 6.071,1.375 l 192.91,-18.375 c 8.469,-0.804 16.984,1.121 24.281,5.5 l 38.574,23.149" /><g
         id="g32"><g
           clip-path="url(#clipPath38)"
           id="g34"><path
             id="path40"
             style="fill:#9999ff;fill-opacity:1;fill-rule:nonzero;stroke:none"
             d="m 108.027,110.664 h 59.7734 v 59.7773 H 108.027 Z" /></g></g><path
         id="path42"
         style="fill:none;stroke:#0000ff;stroke-width:0.99626398;stroke-linecap:butt;stroke-linejoin:miter;stroke-miterlimit:10;stroke-dasharray:none;stroke-opacity:1"
         d="m 167.801,140.551 v 0 c 0,16.504 -13.383,29.89 -29.887,29.89 -16.504,0 -29.887,-13.386 -29.887,-29.89 0,-16.504 13.383,-29.887 29.887,-29.887 16.504,0 29.887,13.383 29.887,29.887 z" /><g
         id="g44"><g
           clip-path="url(#clipPath50)"
           id="g46"><path
             id="path52"
             style="fill:#9999ff;fill-opacity:1;fill-rule:nonzero;stroke:none"
             d="m 287.355,94.7227 h 59.7734 V 154.5 H 287.355 Z" /></g></g><path
         id="path54"
         style="fill:none;stroke:#0000ff;stroke-width:0.99626398;stroke-linecap:butt;stroke-linejoin:miter;stroke-miterlimit:10;stroke-dasharray:none;stroke-opacity:1"
         d="m 347.129,124.613 v 0 c 0,16.504 -13.383,29.887 -29.887,29.887 -16.504,0 -29.887,-13.383 -29.887,-29.887 0,-16.504 13.383,-29.8903 29.887,-29.8903 16.504,0 29.887,13.3863 29.887,29.8903 z" /><g
         transform="scale(10)"
         id="g56"><text
           id="text62"
           style="font-variant:normal;font-weight:normal;font-size:4.9813199px;font-family:Helvetica;-inkscape-font-specification:Helvetica;writing-mode:lr-tb;fill:#0000ff;fill-opacity:1;fill-rule:nonzero;stroke:none"
           transform="matrix(1,0,0,-1,12.4223,12.2363)"><tspan
             id="tspan58"
             y="0"
             x="0">2</tspan><tspan
             id="tspan60"
             y="1.53438"
             x="17.9508">3</tspan></text>
</g></g></g></svg>