<?xml version="1.0" encoding="UTF-8" standalone="no"?>
<svg
   xmlns:dc="http://purl.org/dc/elements/1.1/"
   xmlns:cc="http://creativecommons.org/ns#"
   xmlns:rdf="http://www.w3.org/1999/02/22-rdf-syntax-ns#"
   xmlns:svg="http://www.w3.org/2000/svg"
   xmlns="http://www.w3.org/2000/svg"
   viewBox="0 0 58.453335 37.200001"
   height="37.200001"
   width="58.453335"
   xml:space="preserve"
   id="svg2"
   version="1.1"><metadata
     id="metadata8"><rdf:RDF><cc:Work
         rdf:about=""><dc:format>image/svg+xml</dc:format><dc:type
           rdf:resource="http://purl.org/dc/dcmitype/StillImage" /></cc:Work></rdf:RDF></metadata><defs
     id="defs6"><clipPath
       id="clipPath20"
       clipPathUnits="userSpaceOnUse"><path
         id="path18"
         d="M 0,0 H 438 V 279 H 0 Z" /></clipPath><clipPath
       id="clipPath26"
       clipPathUnits="userSpaceOnUse"><path
         id="path24"
         d="M -1.5625,1.07422 H 566.309 V 399.582 H -1.5625 Z" /></clipPath><clipPath
       id="clipPath38"
       clipPathUnits="userSpaceOnUse"><path
         id="path36"
         d="m 282.371,150.516 v 0 1.504 l -0.609,4.515 -1.742,5.61 -2.754,5.078 -3.653,4.422 -4.422,3.652 -5.078,2.754 -5.609,1.742 -4.516,0.609 h -1.504 -1.507 l -4.516,-0.609 -5.609,-1.742 -5.079,-2.754 -4.421,-3.652 -3.653,-4.422 -2.754,-5.078 -1.742,-5.61 -0.605,-4.515 v -1.504 -1.508 l 0.605,-4.516 1.742,-5.613 2.754,-5.074 3.653,-4.426 4.421,-3.649 5.079,-2.757 5.609,-1.743 4.516,-0.605 h 1.507 1.504 l 4.516,0.605 5.609,1.743 5.078,2.757 4.422,3.649 3.653,4.426 2.754,5.074 1.742,5.613 0.609,4.516 z" /></clipPath></defs><g
     transform="matrix(1.3333333,0,0,-1.3333333,0,37.2)"
     id="g10"><g
       transform="scale(0.1)"
       id="g12"><g
         id="g14"><g
           clip-path="url(#clipPath20)"
           id="g16"><g
             clip-path="url(#clipPath26)"
             id="g22"><path
               id="path28"
               style="fill:#c0c0c0;fill-opacity:1;fill-rule:nonzero;stroke:none"
               d="m 0,1.07422 h 566.309 v 398.508 H 0 Z" /></g></g></g><path
         id="path30"
         style="fill:none;stroke:#ff0000;stroke-width:9.96263981;stroke-linecap:butt;stroke-linejoin:miter;stroke-miterlimit:10;stroke-dasharray:none;stroke-opacity:1"
         d="M 38.2891,240.18 H 209.805 c 21.148,0 38.617,-16.524 39.789,-37.641 l 5.289,-95.172 c 1.355,-24.4295 24.211,-41.8787 48.137,-36.7537 l 93.921,20.125" /><g
         id="g32"><g
           clip-path="url(#clipPath38)"
           id="g34"><path
             id="path40"
             style="fill:#ff9999;fill-opacity:1;fill-rule:nonzero;stroke:none"
             d="m 222.598,120.625 h 59.7734 v 59.7773 H 222.598 Z" /></g></g><path
         id="path42"
         style="fill:none;stroke:#ff0000;stroke-width:0.99626398;stroke-linecap:butt;stroke-linejoin:miter;stroke-miterlimit:10;stroke-dasharray:none;stroke-opacity:1"
         d="m 282.371,150.516 v 0 c 0,16.504 -13.383,29.886 -29.887,29.886 -16.504,0 -29.886,-13.382 -29.886,-29.886 0,-16.504 13.382,-29.891 29.886,-29.891 16.504,0 29.887,13.387 29.887,29.891 z" /><g
         transform="scale(10)"
         id="g44"><text
           id="text48"
           style="font-variant:normal;font-weight:normal;font-size:4.9813199px;font-family:Helvetica;-inkscape-font-specification:Helvetica;writing-mode:lr-tb;fill:#ff0000;fill-opacity:1;fill-rule:nonzero;stroke:none"
           transform="matrix(1,0,0,-1,23.8973,13.2926)"><tspan
             id="tspan46"
             y="0"
             x="0">3</tspan></text>
</g></g></g></svg>