<?xml version="1.0" encoding="UTF-8" standalone="no"?>
<!DOCTYPE svg PUBLIC "-//W3C//DTD SVG 1.1//EN" "http://www.w3.org/Graphics/SVG/1.1/DTD/svg11.dtd">
<svg xmlns="http://www.w3.org/2000/svg" xmlns:xlink="http://www.w3.org/1999/xlink" version="1.1" width="71.94444pt" height="44.277776pt" viewBox="0 0 71.94444 44.277776">
<g enable-background="new">
<path transform="matrix(.27777777,0,0,-.27777777,0,44.277776)" d="M 0 0 L 308.48 0 L 308.48 198.652 L 0 198.652 Z " fill="#a0a0a0"/>
<clipPath id="cp0">
<path transform="matrix(.27777777,0,0,-.27777777,0,44.277776)" d="M 69.375 49.2148 L 149.078 49.2148 L 149.078 99.0273 L 69.375 99.0273 L 69.375 49.2148 Z "/>
</clipPath>
<g clip-path="url(#cp0)">
<path transform="matrix(.27777777,0,0,-.27777777,0,44.277776)" d="M 69.375 49.2148 L 149.0781 49.2148 L 149.0781 99.0273 L 69.375 99.0273 Z " fill="#ffffa3"/>
</g>
<path transform="matrix(.27777777,0,0,-.27777777,0,44.277776)" stroke-width="2.98879" stroke-linecap="butt" stroke-miterlimit="10" stroke-linejoin="miter" fill="none" stroke="#000000" d="M 69.375 49.2148 L 149.078 49.2148 L 149.078 99.0273 L 69.375 99.0273 L 69.375 49.2148 Z "/>
<clipPath id="cp1">
<path transform="matrix(.27777777,0,0,-.27777777,0,44.277776)" d="M 159.039 94.0469 L 208.852 94.0469 L 208.852 125.18 L 159.039 125.18 L 159.039 94.0469 Z "/>
</clipPath>
<g clip-path="url(#cp1)">
<path transform="matrix(.27777777,0,0,-.27777777,0,44.277776)" d="M 159.039 94.0469 L 208.8515 94.0469 L 208.8515 125.179698 L 159.039 125.179698 Z " fill="#a3ffa3"/>
</g>
<path transform="matrix(.27777777,0,0,-.27777777,0,44.277776)" stroke-width="2.98879" stroke-linecap="butt" stroke-miterlimit="10" stroke-linejoin="miter" fill="none" stroke="#000000" d="M 159.039 94.0469 L 208.852 94.0469 L 208.852 125.18 L 159.039 125.18 L 159.039 94.0469 Z "/>
</g>
</svg>
